# xmcd CD database file
#
# Track frame offsets:
#	150
#	9270
#	17145
#	24855
#	31185
#	37230
#	47085
#	54180
#	63105
#	69060
#	76290
#	89535
#	106320
#	123615
#	137205
#
# Disc length: 2056 seconds
#
# Revision: 0
# Processed by: cddbd v1.5.2PL0 Copyright (c) Steve Scherf et al.
# Submitted via: CDex 1.70beta2
#
DISCID=b508060f
DTITLE=Mose Allison - Back Country Suite
DYEAR=1957
DGENRE=Jazz
TTITLE0=New Ground
TTITLE1=Train
TTITLE2=Warm Night
TTITLE3=Blues
TTITLE4=Saturday
TTITLE5=Scamper
TTITLE6=January
TTITLE7=Promised Land
TTITLE8=Spring Song
TTITLE9=Highway 49
TTITLE10=Blueberry Hill
TTITLE11=You Won't Let Me Go
TTITLE12=I Thought About You
TTITLE13=One Room Country Shack
TTITLE14=In Salah
EXTD=YEAR: 1957
EXTT0=
EXTT1=
EXTT2=
EXTT3=
EXTT4=
EXTT5=
EXTT6=
EXTT7=
EXTT8=
EXTT9=
EXTT10=
EXTT11=
EXTT12=
EXTT13=
EXTT14=
PLAYORDER=
